<?xml version="1.0" encoding="UTF-8"?>
<svg xmlns="http://www.w3.org/2000/svg" width="151" height="57" viewBox="0 0 151 57" fill="none">
  <g id="Layer_1" clip-path="url(#clip0_155_700)">
    <g id="Group">
      <path id="Vector" d="M51.2007 15.5177C47.7045 15.5177 45.9368 13.3197 45.9368 9.92708C45.9368 6.34309 47.9006 3.97961 51.5641 3.97961C53.0337 3.97961 54.2915 4.33646 55.2878 5.02171C55.1361 5.50785 55.0159 5.98107 54.9243 6.45169C54.1215 5.19755 52.9579 4.59763 51.3262 4.59763C48.8263 4.59763 47.4377 6.56805 47.4377 9.77969C47.4377 12.9913 48.889 14.9126 51.5066 14.9126C52.3669 14.9126 53.1566 14.7342 53.9594 14.3592C53.9751 13.8033 53.9882 13.2809 53.9882 12.7612C53.9882 12.0449 53.9725 11.3441 53.9437 10.6744C54.1555 10.708 54.3674 10.7416 54.5792 10.7416C54.791 10.7416 55.0028 10.708 55.2172 10.6744C55.1858 11.8329 55.1701 12.681 55.1701 13.2344C55.1701 13.7878 55.1858 14.3437 55.2329 14.8324C53.7947 15.2876 52.4166 15.5151 51.2059 15.5151" fill="white"></path>
      <path id="Vector_2" d="M58.1748 4.25631C58.4023 4.25631 58.6455 4.24079 58.8861 4.17615C58.839 7.61275 58.8259 9.58576 58.8259 10.1055C58.8259 11.67 58.9174 12.8129 59.5816 13.6766C60.1282 14.3929 60.9885 14.7859 62.0632 14.7859C63.138 14.7859 64.0323 14.3618 64.5605 13.6455C65.2718 12.6836 65.3005 11.2821 65.3005 9.29614C65.3005 7.66447 65.2848 5.95263 65.2404 4.19166C65.4051 4.24079 65.5568 4.25889 65.7058 4.25889C65.8758 4.25889 66.0406 4.24338 66.2079 4.19166C66.1478 5.87247 66.1321 6.86544 66.1321 7.16022V7.5843C66.1321 10.5167 66.1138 12.4561 65.5123 13.599C64.8168 14.8868 63.5773 15.5384 61.82 15.5384C58.7919 15.5384 57.5054 14.005 57.5054 10.6304C57.5054 10.1262 57.5524 9.00394 57.5524 7.274C57.5524 6.39481 57.5368 5.36823 57.5054 4.19425C57.7329 4.24338 57.9447 4.26148 58.1722 4.26148" fill="white"></path>
      <path id="Vector_3" d="M69.1051 9.76675C69.1051 8.26696 69.0737 6.39221 69.0005 4.19165C69.2411 4.24078 69.4659 4.2563 69.7091 4.2563C69.9366 4.2563 70.1798 4.24078 70.4047 4.19165C70.3158 6.60425 70.253 8.54364 70.253 9.97621C70.253 11.4088 70.3001 12.9267 70.3603 14.5558C70.6636 14.5713 71.0114 14.5713 71.3906 14.5713C72.7216 14.5713 73.7362 14.4911 74.4788 14.3127C74.4788 14.4756 74.4605 14.6359 74.4605 14.8169C74.4605 14.9773 74.4788 15.1427 74.4788 15.3212C72.6876 15.2876 71.5265 15.272 70.9643 15.272C70.253 15.272 69.6019 15.2876 69.0005 15.3212C69.0737 12.9422 69.1051 11.0855 69.1051 9.76675Z" fill="white"></path>
      <path id="Vector_4" d="M76.7017 11.1838C76.7017 9.16166 76.6703 6.81629 76.5788 4.19165C77.141 4.22527 77.8235 4.24078 78.6394 4.24078C79.4552 4.24078 80.5587 4.22527 81.9813 4.19165C81.9813 4.37007 81.9682 4.55108 81.9682 4.73209C81.9682 4.9131 81.9813 5.07601 81.9813 5.25185C81.2099 5.07343 80.0017 5.00878 78.3334 5.00878H77.9726C77.9255 5.87246 77.9255 6.67149 77.9255 7.4369V9.0634H79.1362C79.7873 9.0634 80.6503 9.04789 81.691 8.95221C81.6779 9.09702 81.6779 9.25993 81.6779 9.42542C81.6779 9.59092 81.6779 9.73314 81.691 9.89863C80.2083 9.80037 79.0891 9.75124 78.3622 9.75124H77.9229V13.4981C77.9229 14.2791 77.9229 14.8997 77.9856 15.3238C77.7294 15.2746 77.4705 15.2591 77.2273 15.2591C77.0024 15.2591 76.7906 15.2746 76.5762 15.3238C76.6677 14.0696 76.6991 12.7017 76.6991 11.1864" fill="white"></path>
      <path id="Vector_5" d="M46.2689 32.9981C46.7239 34.2393 47.6626 34.9401 48.7661 34.9401C50.0553 34.9401 50.9287 34.0273 50.9287 32.543C50.9287 31.4673 50.4449 30.9475 49.4016 30.4898L48.1778 29.9364C46.8128 29.3365 46.1643 28.5194 46.1643 27.198C46.1643 25.3698 47.4482 24.051 49.3545 24.051C50.1887 24.051 50.913 24.2475 51.6557 24.6561C51.4909 25.0311 51.3523 25.4551 51.232 25.9103C50.7012 25.0802 50.0082 24.6561 49.1453 24.6561C48.0235 24.6561 47.3279 25.437 47.3279 26.6757C47.3279 27.6376 47.8143 28.1729 48.8577 28.6642L50.0841 29.2357C51.4595 29.8718 52.0819 30.6527 52.0819 32.0698C52.0819 34.1565 50.6724 35.5917 48.4785 35.5917C47.4953 35.5917 46.6167 35.2969 45.9368 34.728C46.1015 34.1902 46.2218 33.6058 46.2689 33.0007" fill="white"></path>
      <path id="Vector_6" d="M58.7682 35.5917C55.408 35.5917 53.7632 33.3963 53.7632 29.7321C53.7632 26.068 55.6538 24.0381 59.1055 24.0381C60.2822 24.0381 61.391 24.2967 62.3585 24.819C62.2095 25.3388 62.1153 25.8611 62.1153 26.3835C61.391 25.1784 60.4339 24.6406 59.0584 24.6406C56.5481 24.6406 55.3217 26.4222 55.3217 29.7477C55.3217 33.0731 56.5638 34.9737 58.9512 34.9737C60.0574 34.9737 61.2053 34.516 62.2513 33.6032L62.1572 34.6789C61.4171 35.2685 60.2822 35.5917 58.7682 35.5917Z" fill="white"></path>
      <path id="Vector_7" d="M64.4297 31.1751V29.8227C64.4297 27.573 64.4297 25.7318 64.3408 24.2476C64.5656 24.2967 64.7931 24.3148 65.0206 24.3148C65.2612 24.3148 65.4887 24.2967 65.7319 24.2476C65.6691 25.1112 65.6535 26.1714 65.6535 27.4411V29.8227C65.6535 30.8001 65.6404 31.6974 65.6404 32.512C65.6404 33.6032 65.6535 34.5625 65.7319 35.3771C65.5018 35.3279 65.2795 35.2943 65.0494 35.2943C64.8193 35.2943 64.5787 35.3279 64.3381 35.3771C64.414 34.1074 64.427 32.7214 64.427 31.1725" fill="white"></path>
      <path id="Vector_8" d="M68.7287 29.6908C68.7287 27.573 68.6973 25.7629 68.6215 24.2476C69.1968 24.2812 69.8008 24.2967 70.4676 24.2967C71.1344 24.2967 72.3007 24.2838 73.935 24.2476C73.935 24.395 73.9194 24.5579 73.9194 24.7208C73.9194 24.8682 73.935 25.0311 73.935 25.194C72.7243 25.0802 71.5136 25.0337 70.3473 25.0337H70.0022C69.9682 26.9731 69.9682 28.1134 69.9682 28.4703V29.1219H70.2427C71.0141 29.1219 72.1046 29.0909 73.5271 28.9926C73.514 29.1555 73.4983 29.3365 73.4983 29.4968C73.4983 29.6442 73.514 29.8071 73.5271 29.9545C72.8629 29.8252 71.9085 29.8252 70.669 29.8252H69.9577V30.6062C69.9577 31.6328 69.9708 32.9515 69.9865 34.5832H70.3656C71.124 34.5832 72.3478 34.5341 73.9978 34.4048C73.9978 34.5651 73.9821 34.7306 73.9821 34.8935C73.9821 35.0564 73.9978 35.2193 73.9978 35.3823C73.1819 35.3512 72.319 35.3512 71.4116 35.3512C70.5042 35.3512 69.5785 35.3512 68.6084 35.3823C68.6999 33.8825 68.7313 31.9922 68.7313 29.696" fill="white"></path>
      <path id="Vector_9" d="M76.3382 25.7629V24.0381H76.6285C79.3062 27.379 81.8165 30.1795 84.0601 32.6102C84.0732 32.0542 84.0915 31.581 84.0915 31.175C84.0915 28.0281 84.0314 25.7163 83.9686 24.2475C84.1334 24.2812 84.3033 24.3148 84.4524 24.3148C84.6014 24.3148 84.7688 24.2837 84.9205 24.2475C84.8289 27.0325 84.8002 29.577 84.8002 31.8913C84.8002 33.1946 84.8159 34.4332 84.8289 35.5917H84.6354C83.6522 34.2729 82.3474 32.7214 80.7601 30.9294L77.0992 26.7739C77.0835 27.4928 77.0678 28.2091 77.0678 28.9098C77.0678 30.376 77.0992 32.543 77.1724 35.3771C77.005 35.3279 76.8246 35.2943 76.6572 35.2943C76.4899 35.2943 76.3225 35.3253 76.1421 35.3771C76.2781 32.3309 76.3382 29.1193 76.3382 25.7603" fill="white"></path>
      <path id="Vector_10" d="M89.8417 27.7384V25.0155H89.4312C88.2335 25.0155 87.2974 25.0828 86.6462 25.2121C86.6593 25.0673 86.675 24.9018 86.675 24.7569C86.675 24.594 86.6593 24.4156 86.6462 24.2501C87.7968 24.2837 88.9918 24.2993 90.2653 24.2993C91.5388 24.2993 92.8803 24.2863 94.2871 24.2501C94.2583 24.3975 94.2427 24.5604 94.2427 24.7233C94.2427 24.8862 94.261 25.0492 94.2871 25.2121C93.5314 25.0673 92.6397 25.0155 91.6094 25.0155H91.1701C91.1073 26.0913 91.0943 27.3144 91.0943 28.6668C91.0943 30.1329 91.1073 32.3826 91.1701 35.3796C90.9583 35.3486 90.7308 35.3486 90.4902 35.3486C90.2653 35.3486 90.0195 35.3486 89.7633 35.3796C89.8077 32.6929 89.8417 30.1329 89.8417 27.7384Z" fill="white"></path>
      <path id="Vector_11" d="M96.2249 31.1751V29.8227C96.2249 27.573 96.2249 25.7318 96.136 24.2476C96.3635 24.2967 96.5884 24.3148 96.8185 24.3148C97.0486 24.3148 97.2839 24.2967 97.5271 24.2476C97.4644 25.1112 97.4513 26.1714 97.4513 27.4411V29.8227C97.4513 30.8001 97.4356 31.6974 97.4356 32.512C97.4356 33.6032 97.4513 34.5625 97.5271 35.3771C97.3022 35.3279 97.0747 35.2943 96.8472 35.2943C96.6197 35.2943 96.3766 35.3279 96.136 35.3771C96.2092 34.1074 96.2249 32.7214 96.2249 31.1725" fill="white"></path>
      <path id="Vector_12" d="M100.539 31.2397C100.539 29.2176 100.508 26.8722 100.417 24.2476C100.981 24.2812 101.661 24.2967 102.477 24.2967C103.293 24.2967 104.396 24.2838 105.819 24.2476C105.819 24.426 105.803 24.607 105.803 24.7854C105.803 24.9638 105.819 25.1293 105.819 25.3078C105.05 25.1293 103.839 25.0647 102.171 25.0647H101.81C101.763 25.9284 101.763 26.7274 101.763 27.4928V29.1219H102.974C103.625 29.1219 104.488 29.1064 105.531 29.0081C105.518 29.1555 105.518 29.3158 105.518 29.4813C105.518 29.6468 105.518 29.789 105.531 29.9545C104.049 29.8563 102.932 29.8071 102.205 29.8071H101.763V33.554C101.763 34.335 101.763 34.9556 101.826 35.3797C101.57 35.3305 101.311 35.3176 101.068 35.3176C100.843 35.3176 100.631 35.3331 100.417 35.3797C100.508 34.1255 100.539 32.7576 100.539 31.2423" fill="white"></path>
      <path id="Vector_13" d="M108.152 31.1751V29.8227C108.152 27.573 108.152 25.7318 108.06 24.2476C108.288 24.2967 108.512 24.3148 108.743 24.3148C108.983 24.3148 109.211 24.2967 109.454 24.2476C109.394 25.1112 109.381 26.1714 109.381 27.4411V29.8227C109.381 30.8001 109.365 31.6974 109.365 32.512C109.365 33.6032 109.381 34.5625 109.456 35.3771C109.232 35.3279 109.001 35.2943 108.774 35.2943C108.546 35.2943 108.306 35.3279 108.065 35.3771C108.141 34.1074 108.157 32.7214 108.157 31.1725" fill="white"></path>
      <path id="Vector_14" d="M116.611 35.5917C113.251 35.5917 111.603 33.3963 111.603 29.7321C111.603 26.068 113.491 24.0381 116.943 24.0381C118.125 24.0381 119.228 24.2967 120.199 24.819C120.047 25.3388 119.955 25.8611 119.955 26.3835C119.228 25.1784 118.277 24.6406 116.901 24.6406C114.388 24.6406 113.164 26.4222 113.164 29.7477C113.164 33.0731 114.404 34.9737 116.794 34.9737C117.9 34.9737 119.051 34.516 120.094 33.6032L120.005 34.6789C119.265 35.2685 118.13 35.5917 116.616 35.5917" fill="white"></path>
      <path id="Vector_15" d="M50.9445 55.6502C47.5843 55.6502 45.9395 53.4548 45.9395 49.788C45.9395 46.1213 47.8274 44.094 51.2792 44.094C52.4585 44.094 53.5646 44.3526 54.5322 44.8749C54.3831 45.3973 54.289 45.9196 54.289 46.442C53.5646 45.2369 52.6076 44.6965 51.2321 44.6965C48.7191 44.6965 47.4953 46.4782 47.4953 49.8061C47.4953 53.1341 48.7348 55.0296 51.1223 55.0296C52.231 55.0296 53.379 54.5693 54.425 53.6617L54.3308 54.7374C53.5908 55.3269 52.4559 55.6528 50.9418 55.6528" fill="white"></path>
      <path id="Vector_16" d="M65.3973 49.8785C65.3973 46.504 63.9722 44.712 61.3258 44.712C58.6795 44.712 57.2544 46.5842 57.2544 49.9432C57.2544 53.3022 58.7083 55.0425 61.3258 55.0425C63.9434 55.0425 65.3973 53.2195 65.3973 49.8785ZM55.7429 49.8966C55.7429 46.3773 57.9499 44.1095 61.3258 44.1095C64.7017 44.1095 66.8957 46.3592 66.8957 49.8966C66.8957 53.4341 64.686 55.6631 61.3258 55.6631C57.9656 55.6631 55.7429 53.447 55.7429 49.8966Z" fill="white"></path>
      <path id="Vector_17" d="M70.8885 49.5036C73.1452 49.5036 74.2644 48.7201 74.2644 47.1065C74.2644 45.6403 73.4041 44.9085 71.6625 44.9085C71.3749 44.9085 70.967 44.924 70.4832 44.9551C70.4074 45.5627 70.3917 46.1316 70.3917 46.6178V49.4881C70.5747 49.5036 70.7578 49.5036 70.8911 49.5036M69.1626 49.8785C69.1626 47.6107 69.1339 45.7567 69.0554 44.3034C69.3457 44.3215 69.5863 44.337 69.7536 44.337C70.4021 44.337 71.2049 44.2724 72.1751 44.2724C74.4422 44.2724 75.5797 45.1361 75.5797 46.91C75.5797 48.4253 74.5207 49.5346 72.5516 49.9277C73.6891 51.5568 75.0646 53.3824 76.61 55.4329C76.3067 55.3838 76.0059 55.3528 75.7026 55.3528C75.3993 55.3528 75.109 55.3838 74.824 55.4329C74.1572 54.3908 73.5401 53.4444 72.9308 52.5989L71.2807 50.3155C71.1134 50.0725 70.9486 49.9587 70.6767 49.9587C70.5826 49.9587 70.491 49.9742 70.3864 49.9897V52.9712C70.3864 53.7056 70.4204 54.5201 70.4649 55.4304C70.2348 55.3812 70.0099 55.3502 69.7693 55.3502C69.5418 55.3502 69.2986 55.3812 69.0554 55.4304C69.1496 53.8168 69.1626 51.9782 69.1626 49.8759" fill="white"></path>
      <path id="Vector_18" d="M80.1534 49.7829C82.3185 49.7829 83.4064 48.9321 83.4064 47.2384C83.4064 45.5447 82.4833 44.8749 80.4855 44.8749C80.1848 44.8749 79.8814 44.893 79.5467 44.9241C79.5023 45.9843 79.4735 47.1065 79.4735 48.2805V49.7467C79.6984 49.7622 79.9259 49.7803 80.156 49.7803M78.2601 49.8786C78.2601 47.89 78.2314 46.0308 78.1686 44.3035C78.4563 44.3371 78.6995 44.3526 78.9113 44.3526C79.667 44.3526 80.5012 44.2414 81.4373 44.2414C83.6312 44.2414 84.8289 45.299 84.8289 47.0936C84.8289 49.1623 83.375 50.3699 80.6345 50.3699C80.3599 50.3699 79.9703 50.3699 79.4839 50.3388V52.6687C79.4839 53.3384 79.4996 54.2487 79.5572 55.4226C79.3453 55.389 79.1362 55.358 78.9243 55.358C78.6812 55.358 78.4249 55.389 78.166 55.4381C78.2288 53.6461 78.2575 51.7869 78.2575 49.8837" fill="white"></path>
      <path id="Vector_19" d="M95.5894 49.8785C95.5894 46.504 94.1668 44.712 91.5153 44.712C88.8637 44.712 87.4438 46.5842 87.4438 49.9432C87.4438 53.3022 88.8977 55.0425 91.5153 55.0425C94.1328 55.0425 95.5894 53.2195 95.5894 49.8785ZM85.9324 49.8966C85.9324 46.3773 88.142 44.1095 91.5179 44.1095C94.8938 44.1095 97.0877 46.3592 97.0877 49.8966C97.0877 53.4341 94.8755 55.6631 91.5179 55.6631C88.1603 55.6631 85.9324 53.447 85.9324 49.8966Z" fill="white"></path>
      <path id="Vector_20" d="M101.081 49.5036C103.337 49.5036 104.457 48.7201 104.457 47.1065C104.457 45.6403 103.596 44.9085 101.855 44.9085C101.567 44.9085 101.157 44.924 100.673 44.9551C100.597 45.5627 100.581 46.1316 100.581 46.6178V49.4881C100.764 49.5036 100.945 49.5036 101.081 49.5036ZM99.3548 49.8785C99.3548 47.6107 99.3261 45.7567 99.2502 44.3034C99.5405 44.3215 99.7785 44.337 99.9484 44.337C100.6 44.337 101.4 44.2724 102.372 44.2724C104.64 44.2724 105.777 45.1361 105.777 46.91C105.777 48.4253 104.718 49.5346 102.749 49.9277C103.887 51.5568 105.265 53.3824 106.807 55.4329C106.501 55.3838 106.201 55.3528 105.9 55.3528C105.599 55.3528 105.306 55.3838 105.019 55.4329C104.352 54.3908 103.735 53.4444 103.128 52.5989L101.478 50.3155C101.313 50.0725 101.146 49.9587 100.874 49.9587C100.783 49.9587 100.691 49.9742 100.584 49.9897V52.9712C100.584 53.7056 100.615 54.5201 100.66 55.4304C100.432 55.3812 100.207 55.3502 99.9641 55.3502C99.7366 55.3502 99.4908 55.3812 99.2502 55.4304C99.3418 53.8168 99.3548 51.9782 99.3548 49.8759" fill="white"></path>
      <path id="Vector_21" d="M110.931 50.3854C111.462 50.3854 112.142 50.3699 112.96 50.3699L112.704 49.651C112.615 49.3769 112.173 48.2676 111.404 46.3282L109.783 50.3699C110.026 50.3699 110.403 50.3854 110.931 50.3854ZM111.645 44.094H111.93C113.4 48.0529 114.864 51.8335 116.318 55.433C116.077 55.3838 115.837 55.3528 115.58 55.3528C115.324 55.3528 115.065 55.3838 114.806 55.433C114.474 54.3288 114.048 53.0876 113.52 51.7352L113.264 51.0836C112.644 51.0525 112.022 51.0525 111.404 51.0525C110.787 51.0525 110.147 51.0525 109.527 51.0836C108.954 52.5006 108.455 53.9539 107.968 55.433C107.817 55.3838 107.636 55.3528 107.469 55.3528C107.302 55.3528 107.134 55.3838 106.969 55.4174C108.572 51.6524 110.147 47.8719 111.648 44.0914" fill="white"></path>
      <path id="Vector_22" d="M119.202 47.7943V45.0714H118.794C117.597 45.0714 116.658 45.1387 116.007 45.2654C116.023 45.1206 116.038 44.9551 116.038 44.8103C116.038 44.6474 116.023 44.4663 116.007 44.3034C117.16 44.3371 118.352 44.3526 119.626 44.3526C120.899 44.3526 122.243 44.3371 123.653 44.3034C123.622 44.4508 123.606 44.6137 123.606 44.7766C123.606 44.9396 123.624 45.1025 123.653 45.2654C122.895 45.1206 122.003 45.0714 120.973 45.0714H120.536C120.473 46.1472 120.457 47.3728 120.457 48.7201C120.457 50.1863 120.473 52.4385 120.536 55.433C120.321 55.4019 120.097 55.4019 119.853 55.4019C119.626 55.4019 119.385 55.4019 119.124 55.433C119.168 52.7463 119.202 50.1863 119.202 47.7918" fill="white"></path>
      <path id="Vector_23" d="M125.588 51.2309V49.8785C125.588 47.6288 125.588 45.7877 125.499 44.3034C125.724 44.3526 125.951 44.3681 126.179 44.3681C126.419 44.3681 126.647 44.35 126.888 44.3034C126.827 45.1671 126.812 46.2273 126.812 47.4996V49.8785C126.812 50.856 126.796 51.7507 126.796 52.5678C126.796 53.6591 126.812 54.6184 126.888 55.433C126.66 55.3838 126.435 55.3528 126.208 55.3528C125.98 55.3528 125.737 55.3838 125.499 55.433C125.572 54.1633 125.588 52.7773 125.588 51.2309Z" fill="white"></path>
      <path id="Vector_24" d="M138.697 49.8785C138.697 46.504 137.274 44.712 134.623 44.712C131.971 44.712 130.554 46.5842 130.554 49.9432C130.554 53.3022 132.005 55.0425 134.623 55.0425C137.24 55.0425 138.697 53.2195 138.697 49.8785ZM129.04 49.8966C129.04 46.3773 131.249 44.1095 134.623 44.1095C137.996 44.1095 140.195 46.3592 140.195 49.8966C140.195 53.4341 137.983 55.6631 134.623 55.6631C131.262 55.6631 129.04 53.447 129.04 49.8966Z" fill="white"></path>
      <path id="Vector_25" d="M142.418 45.8213V44.094H142.703C145.383 47.4323 147.896 50.2354 150.134 52.6661C150.15 52.1101 150.163 51.6369 150.163 51.2335C150.163 48.0891 150.103 45.7748 150.045 44.306C150.213 44.3396 150.378 44.3707 150.527 44.3707C150.676 44.3707 150.846 44.3396 150.997 44.306C150.906 47.0936 150.874 49.6355 150.874 51.9498C150.874 53.2531 150.89 54.4891 150.906 55.6502H150.712C149.724 54.3288 148.424 52.7799 146.834 50.9879L143.173 46.8324C143.155 47.5487 143.139 48.2676 143.139 48.9683C143.139 50.4345 143.173 52.6015 143.247 55.4356C143.079 55.3864 142.901 55.3554 142.731 55.3554C142.561 55.3554 142.399 55.3864 142.216 55.4356C142.352 52.3894 142.415 49.1778 142.415 45.8213" fill="white"></path>
    </g>
    <path id="Vector_26" d="M19.3009 33.8282L19.999 30.6165L15.3523 35.6615C15.3523 35.6615 14.4292 36.5821 15.585 37.7276L20.6946 44.1535C20.6946 44.1535 21.3876 45.0792 21.1601 45.9946L20.6946 47.1453L24.8942 43.0545C24.8942 43.0545 25.5349 42.5373 24.4105 40.9418L19.3009 33.8256" fill="white"></path>
    <path id="Vector_27" d="M25.1951 0H14.8922C13.4356 0 12.2458 1.17656 12.2458 2.61688V7.10076V9.71764H17.6039V7.0206V6.26294H22.4781V7.0206V9.71764H27.844V2.61688C27.844 1.17656 26.6542 0 25.1977 0H25.1951Z" fill="white"></path>
    <path id="Vector_28" d="M31.2774 22.6547C31.1231 22.184 30.6158 21.9099 30.0274 21.9099L20.8673 21.8867L18.8067 29.6727H23.5711L28.1264 47.9314L13.4356 47.8305C13.4356 47.8305 11.0194 47.9831 11.5319 45.7619L18.3779 20.4877L30.6602 20.5058L30.7701 20.5213L28.8533 13.674C28.4297 11.7191 27.6714 11.0752 26.2253 11.0752H13.7886C12.3426 11.0752 11.4744 12.0164 11.1606 13.674L0.0418604 55.195C-0.224864 56.3277 0.862953 57 1.86709 57H38.2279C39.232 57 40.3277 56.3044 40.0531 55.195L31.28 22.6547H31.2774Z" fill="white"></path>
  </g>
  <defs>
    <clipPath id="clip0_155_700">
      <rect width="151" height="57" fill="white"></rect>
    </clipPath>
  </defs>
</svg>
